<?xml version="1.0" encoding="UTF-8" standalone="no"?>
<!-- Created with Inkscape (http://www.inkscape.org/) -->

<svg
   width="64mm"
   height="64mm"
   viewBox="-1 -1 66 66"
   version="1.1"
   id="svg1"
   xmlns="http://www.w3.org/2000/svg"
   xmlns:svg="http://www.w3.org/2000/svg">
  <defs
     id="defs1" />
  <g
     id="layer1"
     transform="translate(-71.758639,-118.49297)">
    <g
       id="g4"
       transform="matrix(1.0666667,0,0,1.0666667,-4.78391,-7.8995317)">
      <circle
         style="opacity:1;fill:#ffffff;stroke:#000000;stroke-width:3.32484;stroke-linejoin:round;stroke-dasharray:none;paint-order:stroke fill markers"
         id="path4"
         cx="101.75864"
         cy="148.49297"
         r="28.33758" />
      <path
         style="fill:#000000;stroke:none;stroke-width:0.465431"
         d="m 84.216866,169.80276 c 2.489081,-1.00994 1.596212,-3.53798 2.239951,-5.34275 0.348918,-2.483 0.988873,-4.9517 0.809993,-7.46094 -0.03939,-3.07186 0.108922,-6.15024 -0.1208,-9.21669 -0.94911,-1.18873 -0.58822,-1.47121 1.225867,-1.47121 h 4.440263 c 0,-1.03566 -2.574305,-0.76478 -4.593756,-0.76478 -1.429844,0 -3.568026,0.25349 -1.733003,-1.07624 1.901685,-2.29873 2.048737,-5.14624 2.970249,-7.72763 0.477093,-1.47672 0.896929,-2.9373 1.55428,-5.07352 0.87297,3.77698 1.684381,7.58569 3.076635,11.26856 0.130557,1.23604 2.75845,2.27756 1.122279,3.0488 -0.38742,1.76737 -0.91837,3.49367 -0.733086,5.32936 -0.02309,1.10302 -0.04621,2.20603 -0.06931,3.30905 1.615051,0 1.206124,-0.11603 1.206124,1.33504 0,1.58123 0.368777,1.28982 -1.136809,1.28982 v 1.96924 c 2.529582,0 2.681022,-0.13335 2.681022,0.35127 -3.295105,0 -3.040003,1.30287 -2.845924,2.70968 -0.571802,1.00194 3.486514,0.42519 0.982885,0.99596 -1.421145,-0.21178 -1.572626,2.15244 -0.805514,2.2915 1.125936,-0.091 3.514873,0.26504 1.151417,0.46264 -1.198682,-0.0946 -1.629369,0.42506 -1.629369,1.19869 0,1.57163 0.128709,1.61638 3.015055,1.61638 1.1204,0 1.55871,-0.10631 1.32682,-0.98168 0.0992,-1.39406 0.016,-2.83023 0.22707,-4.1985 0.74134,-1.31079 2.687185,-2.64614 4.522185,-1.71483 2.14529,1.19498 1.62543,3.5733 1.62543,5.36464 0,0.9442 0.13264,1.74907 1.39235,1.47581 0.39526,-0.74141 0.0724,-2.05456 0.17517,-2.98781 -0.135,-1.5375 -0.14514,-3.26051 -0.17306,-4.50537 -1.73453,0 -0.33748,-1.4006 -1.44091,-1.4006 -1.19616,0 -2.51943,-0.48677 -0.50032,-0.48374 1.29371,0 0.89952,-0.63022 0.94447,-1.26022 0.26687,-0.85146 -0.0958,-1.21982 -1.20903,-1.01214 -0.74498,-0.053 -1.40142,0.11784 -1.40142,-0.16818 0,-1.1857 0.14103,-2.74949 0.14103,-3.97951 0,-1.14408 0.0529,-0.96812 -1.77637,-0.96812 0,-0.73809 1.77637,0.25195 1.77637,-0.94919 0,-0.82977 0.22364,-1.71401 -0.73636,-1.71204 -1.00007,0 0.73636,-0.32786 0.73636,-0.94896 v -8.33845 c -1.38049,2.9e-4 -2.779445,0.009 -4.144785,-0.0438 -0.29913,4.11374 -0.097,8.25458 -0.15284,12.38047 v 2.21182 c 0.67876,0.0842 1.770635,-0.15757 2.218125,0.10913 v 2.38127 c -0.915305,-0.0254 -2.928855,0.39297 -3.186775,-0.3322 -0.0774,-5.63255 0.0758,-11.27181 -0.20764,-16.8989 -1.178901,-1.61115 2.74863,-1.23575 4.778115,-1.23575 2.99839,0 2.13989,-0.69795 0.5745,-0.69795 -2.31611,-0.0257 -4.633645,0.0191 -6.949027,-0.0393 2.718502,-2.51892 3.134712,-5.8987 4.237232,-8.96466 0.630675,-2.0002 1.255125,-4.00224 1.782795,-6.02123 1.29641,4.10406 2.25672,8.28389 3.91477,12.30948 0.11939,1.17695 2.77707,2.32585 1.02556,3.05142 -0.45681,1.9512 -1.05336,3.90376 -0.8277,5.94352 -0.0273,4.28538 -0.0191,8.57084 -0.0282,12.85627 0.84648,0.0445 1.92955,0.28595 1.54078,-0.69825 v -1.87235 c 0.65791,-0.11991 2.07526,0.36585 1.74038,-0.5458 -0.0162,-2.08515 0.17309,-4.17893 -0.0394,-6.25754 -0.99241,-1.16692 -0.50675,-1.64825 1.06249,-1.40069 h 4.58418 c 0.30379,-0.89649 -0.20384,-0.89649 -1.27767,-0.89649 -2.07221,0.0374 -4.11113,0.0838 -6.18335,0.1212 1.57307,-1.65391 2.68292,-3.55492 3.07031,-5.6128 0.84484,-3.02245 1.68632,-6.04623 2.39883,-9.0902 0.95749,3.8853 1.84934,7.79141 3.1234,11.61976 0.0895,1.37722 2.96742,2.08892 1.23238,2.96204 -0.5634,1.92232 -0.62144,4.40419 -0.58884,6.37516 0.004,4.76321 -0.029,9.54471 0.8977,14.2644 0.20287,1.39712 -0.015,3.05576 2.00212,3.60006 0.36762,0.28259 -1.48716,0.0568 -1.97829,0.1428 -11.01826,0.0642 -22.039869,0.10182 -33.057266,0.006 z m 6.71692,-1.75089 c 1.524718,-2.04935 -2.935649,-1.20652 -2.723535,-1.77823 1.067347,-0.44334 3.401965,0.32427 3.069185,-1.17182 0.846427,-1.47368 -0.789599,-1.4871 -2.245246,-1.42328 -1.287459,-0.52572 3.400645,0.2166 2.500427,-1.30095 -0.03624,-1.55018 0.425478,-3.13401 0.23777,-4.74379 v -2.40757 c -2.09002,-0.19418 0.60756,-0.0857 0.06931,-1.06555 v -6.20869 h -3.787682 c 0.09777,3.19988 0.204189,6.40014 0.183221,9.60123 1.159673,0.0179 2.781891,0.52319 0.585287,0.55468 -1.359292,0.15551 -0.247629,2.16186 -0.835582,3.00478 -0.362329,2.58012 -0.772917,5.15583 -1.174679,7.73226 h 4.030841 c 0.03023,-0.26436 0.06044,-0.52872 0.09067,-0.79307 z M 89.48385,152.49234 c -0.506967,-0.74943 0.187612,-3.57043 1.172731,-1.8415 0.06988,0.85949 0.538953,2.19373 -1.172731,1.84151 z m 24.37637,11.32078 c 0,-0.67745 0.63587,-2.66974 -0.83087,-2.51591 -1.39905,-0.0327 -2.98141,-0.18762 -2.4414,1.40258 0.33284,0.9801 1.84408,0.0621 2.05248,0.67579 0.30111,0.88668 0.94097,2.15611 1.21979,0.43754 z m -1.32752,-3.28041 c 1.1712,0.24013 1.39658,-0.26506 1.21305,-1.09247 -0.19677,-0.50668 0.44894,-1.61303 -0.41271,-1.64645 -2.07086,-0.0851 -0.45229,-0.399 0.34339,-0.71946 v -2.50447 c -1.14145,0 -0.0791,0.0692 -0.0791,-1.71103 -0.0366,-1.64065 0.48523,-3.64348 -0.12939,-5.05369 -1.21575,-0.022 -2.43051,0.0376 -3.6454,0.0645 0.11742,4.0664 0.002,8.14233 0.34354,12.20063 0.0343,1.03408 1.6314,0.25293 2.36669,0.46251 z m -1.20902,-9.50302 c 0,-1.84374 1.12128,-1.97401 1.12128,-0.4478 0,0.85012 0.44496,1.56625 -0.87206,1.56625 -0.71065,0 -0.24922,-0.74454 -0.24922,-1.11845 z m -11.1719,-6.74543 c 0,-1.52298 1.52513,-2.22683 1.52513,-0.42788 0,0.63756 0.56372,1.90198 -0.68375,1.90198 -1.336655,0 -0.84138,-0.89361 -0.84138,-1.4741 z"
         id="path1" />
    </g>
  </g>
</svg>
