<?xml version="1.0" encoding="UTF-8" standalone="no"?>
<!-- Created with Inkscape (http://www.inkscape.org/) -->

<svg
   width="1000mm"
   height="979.17969mm"
   viewBox="0 0 1000 979.17969"
   version="1.1"
   id="svg1"
   xml:space="preserve"
   inkscape:version="1.4.2 (2aeb623e1d, 2025-05-12)"
   sodipodi:docname="threespiredesign.svg"
   xmlns:inkscape="http://www.inkscape.org/namespaces/inkscape"
   xmlns:sodipodi="http://sodipodi.sourceforge.net/DTD/sodipodi-0.dtd"
   xmlns:xlink="http://www.w3.org/1999/xlink"
   xmlns="http://www.w3.org/2000/svg"
   xmlns:svg="http://www.w3.org/2000/svg"><sodipodi:namedview
     id="namedview1"
     pagecolor="#ffffff"
     bordercolor="#000000"
     borderopacity="0.25"
     inkscape:showpageshadow="2"
     inkscape:pageopacity="0.0"
     inkscape:pagecheckerboard="0"
     inkscape:deskcolor="#d1d1d1"
     inkscape:document-units="mm"
     inkscape:zoom="0.060709328"
     inkscape:cx="-1474.238"
     inkscape:cy="4225.0509"
     inkscape:window-width="1920"
     inkscape:window-height="1003"
     inkscape:window-x="0"
     inkscape:window-y="40"
     inkscape:window-maximized="1"
     inkscape:current-layer="layer1" /><defs
     id="defs1"><linearGradient
       id="linearGradient1"><stop
         style="stop-color:#ff0000;stop-opacity:1;"
         offset="0"
         id="stop1" /><stop
         style="stop-color:#ff0000;stop-opacity:1;"
         offset="0"
         id="stop3" /><stop
         style="stop-color:#1bff00;stop-opacity:1;"
         offset="0.34341225"
         id="stop5" /><stop
         style="stop-color:#00ff15;stop-opacity:1;"
         offset="0.60835743"
         id="stop8" /><stop
         style="stop-color:#0013ff;stop-opacity:1;"
         offset="1"
         id="stop7" /><stop
         style="stop-color:#001cff;stop-opacity:1;"
         offset="1"
         id="stop2" /></linearGradient><linearGradient
       xlink:href="#linearGradient1"
       id="linearGradient2"
       x1="108.51084"
       y1="159.82385"
       x2="138.21146"
       y2="159.82385"
       gradientUnits="userSpaceOnUse"
       gradientTransform="translate(2.8355905,2.0891723)" /></defs><g
     inkscape:label="Layer 1"
     inkscape:groupmode="layer"
     id="layer1"
     transform="translate(-5.0395662,-50.513198)"><g
       id="g75"
       transform="matrix(33.669345,0,0,19.444293,-3743.9218,-2608.1814)"
       style="stroke-width:0.999748;stroke-dasharray:none"><path
         style="opacity:0.923216;fill:#d3d3d3;fill-opacity:1;stroke:none;stroke-width:0.999748;stroke-dasharray:none"
         d="m 122.4974,173.60516 c -0.0655,-6.04323 0.0642,-12.63843 -0.17578,-18.67581 -0.99802,-1.72862 2.32691,-1.32585 4.04501,-1.32585 2.53835,0 1.81157,-0.74883 0.48635,-0.74883 -1.96075,-0.0276 -3.9227,0.0205 -5.88283,-0.0422 2.3014,-2.70258 2.65375,-6.32879 3.58711,-9.6183 0.53391,-2.14603 1.06255,-4.29405 1.50926,-6.46024 1.0975,4.40329 1.91047,8.88788 3.31413,13.20698 0.10107,1.26277 2.35099,2.49544 0.86821,3.27391 -0.38672,2.09346 -0.89174,4.18839 -0.70071,6.37687 -0.0231,4.59784 -0.0162,9.19576 -0.0239,13.79365 0.71661,0.0477 1.6335,0.30679 1.30438,-0.74916 v -2.00887 c 0.55697,-0.12865 1.75685,0.39252 1.47336,-0.58559 -0.0137,-2.23719 0.14653,-4.48363 -0.0334,-6.7138 -0.84015,-1.252 -0.429,-1.76842 0.89946,-1.50281 h 3.88083 c 0.25718,-0.96186 -0.17256,-0.96186 -1.08164,-0.96186 -1.75427,0.0401 -3.48034,0.0899 -5.23462,0.13004 1.3317,-1.7745 2.27126,-3.81412 2.59922,-6.02204 0.71521,-3.24282 1.42758,-6.48707 2.03078,-9.75298 0.81058,4.16858 1.56559,8.35949 2.64418,12.46697 0.0758,1.47764 2.51213,2.24123 1.04329,3.17801 -0.47695,2.06248 -0.52608,4.72531 -0.49849,6.83999 0.003,5.1105 -0.0246,10.24063 0.75996,15.30444 0.17176,1.49899 -0.0127,3.27856 1.69495,3.86255 0.31122,0.3032 -1.25899,0.0609 -1.67476,0.15321 -9.32773,0.0689 -18.65831,0.10925 -27.98532,0.006 v 2.2e-4 c 2.10718,-1.08357 1.35131,-3.79594 1.89628,-5.73229 0.29538,-2.66405 0.83715,-5.31274 0.68572,-8.00494 -0.0333,-3.29583 0.0922,-6.59866 -0.10227,-9.88869 -0.80349,-1.27541 -0.49797,-1.57848 1.03778,-1.57848 h 3.759 c 0,-1.11117 -2.17933,-0.82054 -3.88894,-0.82054 -1.21046,0 -3.02059,0.27197 -1.46711,-1.15472 1.60991,-2.46633 1.7344,-5.52145 2.51453,-8.29106 0.40389,-1.58439 0.75931,-3.15146 1.31581,-5.44344 0.73903,4.05237 1.42594,8.13878 2.60459,12.09017 0.11052,1.32616 2.33521,2.44362 0.95009,3.2711 -0.32798,1.89623 -0.77747,3.7484 -0.62061,5.71793 -0.0196,1.18344 -0.0391,2.36688 -0.0587,3.55032 1.36725,0 1.02107,1.27149 1.02107,2.82836"
         id="path1-2" /><path
         style="opacity:0.923216;fill:#000000;stroke:none;stroke-width:0.999748;stroke-dasharray:none"
         d="m 111.34643,187.02966 c 2.10718,-1.08357 1.35131,-3.79594 1.89628,-5.73229 0.29538,-2.66405 0.83715,-5.31274 0.68571,-8.00494 -0.0333,-3.29583 0.0922,-6.59866 -0.10226,-9.88869 -0.80349,-1.27541 -0.49797,-1.57848 1.03778,-1.57848 h 3.759 c 0,-1.11117 -2.17933,-0.82054 -3.88894,-0.82054 -1.21047,0 -3.02059,0.27197 -1.46711,-1.15472 1.60991,-2.46633 1.7344,-5.52145 2.51453,-8.29106 0.40389,-1.58439 0.75931,-3.15146 1.3158,-5.44344 0.73904,4.05237 1.42595,8.13878 2.60459,12.09017 0.11053,1.32616 2.33522,2.44362 0.95009,3.2711 -0.32798,1.89623 -0.77746,3.7484 -0.62061,5.71793 -0.0195,1.18344 -0.0391,2.36688 -0.0587,3.55032 1.36726,0 1.02107,-0.12449 1.02107,1.43238 0,1.69652 0.3122,1.38386 -0.96238,1.38386 v 2.11282 c 2.14146,0 2.26967,-0.14307 2.26967,0.37688 -2.78954,0 -2.57358,1.39787 -2.40928,2.90725 -0.48407,1.07499 2.95158,0.4562 0.83209,1.06858 -1.2031,-0.22722 -1.33134,2.30938 -0.68193,2.45858 0.95319,-0.0976 2.97559,0.28436 0.97476,0.49637 -1.01477,-0.10145 -1.37938,0.45605 -1.37938,1.28609 0,1.68622 0.10896,1.73423 2.55245,1.73423 0.9485,0 1.31956,-0.11406 1.12325,-1.05325 0.084,-1.49571 0.0135,-3.03659 0.19223,-4.50462 0.6276,-1.40637 2.27489,-2.83908 3.82835,-1.83987 1.81614,1.28211 1.37604,3.83384 1.37604,5.75579 0,1.01304 0.11229,1.8766 1.17873,1.58342 0.33461,-0.79547 0.0613,-2.20437 0.14829,-3.20566 -0.11429,-1.6496 -0.12287,-3.49824 -0.14651,-4.83387 -1.4684,0 -0.2857,-1.50272 -1.21983,-1.50272 -1.01264,0 -2.13288,-0.52226 -0.42356,-0.51901 1.09522,0 0.76151,-0.67617 0.79956,-1.3521 0.22593,-0.91355 -0.0811,-1.30876 -1.02353,-1.08594 -0.63067,-0.0569 -1.1864,0.12643 -1.1864,-0.18044 0,-1.27215 0.11939,-2.94996 0.11939,-4.26967 0,-1.22749 0.0448,-1.0387 -1.50382,-1.0387 0,-0.79191 1.50382,0.27032 1.50382,-1.0184 0,-0.89027 0.18933,-1.83898 -0.62338,-1.83687 -0.84663,0 0.62338,-0.35176 0.62338,-1.01815 v -8.94642 c -1.16868,5.4e-4 -2.35299,0.01 -3.50885,-0.047 -0.25323,4.41368 -0.0821,8.85644 -0.12939,13.28316 v 2.37308 c 0.57462,0.0903 1.49897,-0.16905 1.8778,0.11709 v 2.55489 c -0.77487,-0.0273 -2.47948,0.42163 -2.69783,-0.35641 -0.0655,-6.04323 0.0642,-12.09366 -0.17578,-18.13104 -0.99802,-1.72862 2.32691,-1.32585 4.04501,-1.32585 2.53835,0 1.81157,-0.74883 0.48635,-0.74883 -1.96075,-0.0276 -3.9227,0.0205 -5.88283,-0.0422 2.3014,-2.70258 2.65375,-6.32879 3.58711,-9.6183 0.53391,-2.14603 1.06255,-4.29405 1.50926,-6.46024 1.0975,4.40329 1.91047,8.88788 3.31413,13.20698 0.10107,1.26277 2.35099,2.49544 0.86821,3.27391 -0.38672,2.09346 -0.89174,4.18839 -0.70071,6.37687 -0.0231,4.59784 -0.0162,9.19576 -0.0239,13.79365 0.71661,0.0477 1.6335,0.30679 1.30438,-0.74916 v -2.00887 c 0.55697,-0.12865 1.75686,0.39252 1.47336,-0.58559 -0.0137,-2.23719 0.14653,-4.48363 -0.0334,-6.7138 -0.84015,-1.252 -0.429,-1.76842 0.89947,-1.50281 h 3.88083 c 0.25718,-0.96186 -0.17256,-0.96186 -1.08164,-0.96186 -1.75427,0.0401 -3.48036,0.0899 -5.23464,0.13004 1.33171,-1.7745 2.27128,-3.81412 2.59923,-6.02204 0.71522,-3.24282 1.42759,-6.48707 2.03078,-9.75298 0.81059,4.16858 1.5656,8.35949 2.64418,12.46697 0.0758,1.47764 2.51214,2.24123 1.0433,3.17801 -0.47696,2.06248 -0.52609,4.72531 -0.49849,6.83999 0.003,5.1105 -0.0246,10.24063 0.75996,15.30444 0.17175,1.49899 -0.0127,3.27856 1.69494,3.86255 0.31122,0.3032 -1.25899,0.0609 -1.67476,0.15321 -9.32774,0.0689 -18.65831,0.10925 -27.98532,0.006 z m 5.68635,-1.87854 c 1.29078,-2.19878 -2.48524,-1.2945 -2.30567,-1.90789 0.90359,-0.47566 2.88001,0.34791 2.59829,-1.25726 0.71656,-1.58113 -0.66845,-1.59552 -1.90076,-1.52705 -1.08993,-0.56406 2.87888,0.23239 2.11679,-1.39581 -0.0307,-1.66321 0.36019,-3.36252 0.20128,-5.08967 v -2.58311 c -1.76935,-0.20834 0.51435,-0.092 0.0587,-1.14324 v -6.66138 h -3.20654 c 0.0828,3.43319 0.17286,6.86679 0.15511,10.30128 0.98175,0.0192 2.35507,0.56133 0.49549,0.59512 -1.15074,0.16685 -0.20964,2.31948 -0.70738,3.22387 -0.30674,2.76824 -0.65433,5.53175 -0.99445,8.29603 h 3.41239 c 0.0256,-0.28364 0.0512,-0.56727 0.0768,-0.85089 z m -1.22747,-16.69401 c -0.42919,-0.80407 0.15882,-3.83076 0.9928,-1.97577 0.0592,0.92216 0.45626,2.35368 -0.9928,1.97578 z m 20.63632,12.1462 c 0,-0.72685 0.53831,-2.8644 -0.70339,-2.69935 -1.1844,-0.0351 -2.52398,-0.2013 -2.06682,1.50484 0.28177,1.05157 1.56114,0.0666 1.73757,0.72506 0.25491,0.95134 0.7966,2.31332 1.03264,0.46945 z m -1.12384,-3.51959 c 0.9915,0.25764 1.1823,-0.28439 1.02693,-1.17213 -0.16658,-0.54362 0.38006,-1.73063 -0.34939,-1.76649 -1.75313,-0.0913 -0.38289,-0.42809 0.29071,-0.77192 v -2.68707 c -0.96632,0 -0.067,0.0743 -0.067,-1.83579 -0.031,-1.76027 0.41078,-3.90913 -0.10954,-5.42216 -1.02922,-0.0236 -2.0576,0.0403 -3.08609,0.0692 0.0994,4.36289 0.002,8.736 0.29083,13.0902 0.029,1.10948 1.3811,0.27137 2.00357,0.49623 z m -1.02352,-10.19591 c 0,-1.97817 0.94924,-2.11793 0.94924,-0.48045 0,0.91211 0.37669,1.68045 -0.73826,1.68045 -0.60162,0 -0.21098,-0.79882 -0.21098,-1.2 z m -9.45781,-7.23725 c 0,-1.63402 1.29113,-2.38919 1.29113,-0.45907 0,0.68404 0.47723,2.04065 -0.57884,2.04065 -1.13157,0 -0.71229,-0.95876 -0.71229,-1.58158 z"
         id="path1" /></g></g></svg>
